<mxfile host="Electron" modified="2024-03-05T04:50:38.151Z" agent="Mozilla/5.0 (X11; Linux x86_64) AppleWebKit/537.36 (KHTML, like Gecko) draw.io/23.0.2 Chrome/120.0.6099.109 Electron/28.2.5 Safari/537.36" etag="EMAdk_rZKJCo3fjFz7jp" version="23.0.2" type="device">
  <diagram name="Page-1" id="kaVxl003zkkZ3Sqm6b-Y">
    <mxGraphModel dx="2093" dy="1091" grid="1" gridSize="10" guides="1" tooltips="1" connect="1" arrows="1" fold="1" page="1" pageScale="1" pageWidth="850" pageHeight="1100" math="0" shadow="0">
      <root>
        <mxCell id="0" />
        <mxCell id="1" parent="0" />
        <mxCell id="eiTDNOzj87OtUUi1a_SR-58" value="" style="rounded=0;whiteSpace=wrap;html=1;" vertex="1" parent="1">
          <mxGeometry y="435.25" width="210" height="170" as="geometry" />
        </mxCell>
        <mxCell id="eiTDNOzj87OtUUi1a_SR-43" style="edgeStyle=orthogonalEdgeStyle;rounded=0;orthogonalLoop=1;jettySize=auto;html=1;entryX=0.5;entryY=1;entryDx=0;entryDy=0;" edge="1" parent="1" source="eiTDNOzj87OtUUi1a_SR-1" target="eiTDNOzj87OtUUi1a_SR-42">
          <mxGeometry relative="1" as="geometry">
            <Array as="points">
              <mxPoint x="1493" y="825.5" />
              <mxPoint x="1366" y="825.5" />
            </Array>
          </mxGeometry>
        </mxCell>
        <mxCell id="eiTDNOzj87OtUUi1a_SR-45" style="edgeStyle=orthogonalEdgeStyle;rounded=0;orthogonalLoop=1;jettySize=auto;html=1;entryX=0.5;entryY=1;entryDx=0;entryDy=0;" edge="1" parent="1" source="eiTDNOzj87OtUUi1a_SR-1" target="eiTDNOzj87OtUUi1a_SR-44">
          <mxGeometry relative="1" as="geometry">
            <Array as="points">
              <mxPoint x="1493" y="825.5" />
              <mxPoint x="1230" y="825.5" />
            </Array>
          </mxGeometry>
        </mxCell>
        <mxCell id="eiTDNOzj87OtUUi1a_SR-168" style="edgeStyle=orthogonalEdgeStyle;rounded=0;orthogonalLoop=1;jettySize=auto;html=1;entryX=0.5;entryY=1;entryDx=0;entryDy=0;" edge="1" parent="1" source="eiTDNOzj87OtUUi1a_SR-1" target="eiTDNOzj87OtUUi1a_SR-41">
          <mxGeometry relative="1" as="geometry">
            <Array as="points">
              <mxPoint x="1492" y="825.5" />
              <mxPoint x="1504" y="825.5" />
            </Array>
          </mxGeometry>
        </mxCell>
        <mxCell id="eiTDNOzj87OtUUi1a_SR-169" style="edgeStyle=orthogonalEdgeStyle;rounded=0;orthogonalLoop=1;jettySize=auto;html=1;entryX=0.5;entryY=1;entryDx=0;entryDy=0;" edge="1" parent="1" source="eiTDNOzj87OtUUi1a_SR-1" target="eiTDNOzj87OtUUi1a_SR-163">
          <mxGeometry relative="1" as="geometry">
            <Array as="points">
              <mxPoint x="1493" y="825.5" />
              <mxPoint x="1650" y="825.5" />
            </Array>
          </mxGeometry>
        </mxCell>
        <mxCell id="eiTDNOzj87OtUUi1a_SR-1" value="Neural Network model" style="rounded=0;whiteSpace=wrap;html=1;" vertex="1" parent="1">
          <mxGeometry x="1432.5" y="835.5" width="120" height="60" as="geometry" />
        </mxCell>
        <mxCell id="eiTDNOzj87OtUUi1a_SR-3" value="Layer" style="rounded=0;whiteSpace=wrap;html=1;" vertex="1" parent="1">
          <mxGeometry x="1210" y="130.75" width="120" height="60" as="geometry" />
        </mxCell>
        <mxCell id="eiTDNOzj87OtUUi1a_SR-4" value="Weights" style="rounded=0;whiteSpace=wrap;html=1;" vertex="1" parent="1">
          <mxGeometry x="1210" y="258.25" width="120" height="60" as="geometry" />
        </mxCell>
        <mxCell id="eiTDNOzj87OtUUi1a_SR-10" value="" style="shape=flexArrow;endArrow=classic;html=1;rounded=0;" edge="1" parent="1">
          <mxGeometry width="50" height="50" relative="1" as="geometry">
            <mxPoint x="1562.5" y="865.1599999999999" as="sourcePoint" />
            <mxPoint x="1652.5" y="865.1599999999999" as="targetPoint" />
          </mxGeometry>
        </mxCell>
        <mxCell id="eiTDNOzj87OtUUi1a_SR-12" value="" style="shape=flexArrow;endArrow=classic;html=1;rounded=0;" edge="1" parent="1">
          <mxGeometry width="50" height="50" relative="1" as="geometry">
            <mxPoint x="1350" y="160.40999999999997" as="sourcePoint" />
            <mxPoint x="1440" y="160.40999999999997" as="targetPoint" />
          </mxGeometry>
        </mxCell>
        <mxCell id="eiTDNOzj87OtUUi1a_SR-13" value="dataflow&lt;br&gt;In/Out" style="rounded=0;whiteSpace=wrap;html=1;" vertex="1" parent="1">
          <mxGeometry x="1450" y="130.75" width="120" height="60" as="geometry" />
        </mxCell>
        <mxCell id="eiTDNOzj87OtUUi1a_SR-14" value="Trainable Layers" style="rounded=0;whiteSpace=wrap;html=1;" vertex="1" parent="1">
          <mxGeometry x="1662.5" y="835.5" width="120" height="60" as="geometry" />
        </mxCell>
        <mxCell id="eiTDNOzj87OtUUi1a_SR-15" value="At end a layer is like a mathematical function: L: X -&amp;gt; Y" style="text;html=1;strokeColor=none;fillColor=none;align=center;verticalAlign=middle;whiteSpace=wrap;rounded=0;" vertex="1" parent="1">
          <mxGeometry x="1210" y="210.75" width="335" height="30" as="geometry" />
        </mxCell>
        <mxCell id="eiTDNOzj87OtUUi1a_SR-21" value="Activation Function" style="rounded=0;whiteSpace=wrap;html=1;" vertex="1" parent="1">
          <mxGeometry x="1640" y="130.75" width="120" height="60" as="geometry" />
        </mxCell>
        <mxCell id="eiTDNOzj87OtUUi1a_SR-22" value="" style="shape=flexArrow;endArrow=classic;html=1;rounded=0;" edge="1" parent="1">
          <mxGeometry width="50" height="50" relative="1" as="geometry">
            <mxPoint x="1780" y="160.40999999999997" as="sourcePoint" />
            <mxPoint x="1870" y="160.40999999999997" as="targetPoint" />
          </mxGeometry>
        </mxCell>
        <mxCell id="eiTDNOzj87OtUUi1a_SR-23" value="Non-Trainable Layer" style="rounded=0;whiteSpace=wrap;html=1;" vertex="1" parent="1">
          <mxGeometry x="1890" y="130.75" width="120" height="60" as="geometry" />
        </mxCell>
        <mxCell id="eiTDNOzj87OtUUi1a_SR-30" style="edgeStyle=orthogonalEdgeStyle;rounded=0;orthogonalLoop=1;jettySize=auto;html=1;entryX=0.5;entryY=1;entryDx=0;entryDy=0;" edge="1" parent="1" source="eiTDNOzj87OtUUi1a_SR-24" target="eiTDNOzj87OtUUi1a_SR-4">
          <mxGeometry relative="1" as="geometry" />
        </mxCell>
        <mxCell id="eiTDNOzj87OtUUi1a_SR-117" style="edgeStyle=orthogonalEdgeStyle;rounded=0;orthogonalLoop=1;jettySize=auto;html=1;entryX=0.5;entryY=1;entryDx=0;entryDy=0;" edge="1" parent="1" source="eiTDNOzj87OtUUi1a_SR-24" target="eiTDNOzj87OtUUi1a_SR-116">
          <mxGeometry relative="1" as="geometry">
            <Array as="points">
              <mxPoint x="1270" y="335.5" />
              <mxPoint x="1410" y="335.5" />
            </Array>
          </mxGeometry>
        </mxCell>
        <mxCell id="eiTDNOzj87OtUUi1a_SR-24" value="Trainable Layer" style="rounded=0;whiteSpace=wrap;html=1;" vertex="1" parent="1">
          <mxGeometry x="1210" y="348.25" width="120" height="60" as="geometry" />
        </mxCell>
        <mxCell id="eiTDNOzj87OtUUi1a_SR-25" value="" style="shape=flexArrow;endArrow=classic;html=1;rounded=0;" edge="1" parent="1">
          <mxGeometry width="50" height="50" relative="1" as="geometry">
            <mxPoint x="1350" y="377.90999999999997" as="sourcePoint" />
            <mxPoint x="1440" y="377.90999999999997" as="targetPoint" />
          </mxGeometry>
        </mxCell>
        <mxCell id="eiTDNOzj87OtUUi1a_SR-26" value="Layer" style="rounded=0;whiteSpace=wrap;html=1;" vertex="1" parent="1">
          <mxGeometry x="1460" y="348.25" width="120" height="60" as="geometry" />
        </mxCell>
        <mxCell id="eiTDNOzj87OtUUi1a_SR-27" value="Non-Trainable Layer" style="rounded=0;whiteSpace=wrap;html=1;" vertex="1" parent="1">
          <mxGeometry x="1210" y="453.25" width="120" height="60" as="geometry" />
        </mxCell>
        <mxCell id="eiTDNOzj87OtUUi1a_SR-28" value="" style="shape=flexArrow;endArrow=classic;html=1;rounded=0;" edge="1" parent="1">
          <mxGeometry width="50" height="50" relative="1" as="geometry">
            <mxPoint x="1350" y="482.90999999999997" as="sourcePoint" />
            <mxPoint x="1440" y="482.90999999999997" as="targetPoint" />
          </mxGeometry>
        </mxCell>
        <mxCell id="eiTDNOzj87OtUUi1a_SR-29" value="Layer" style="rounded=0;whiteSpace=wrap;html=1;" vertex="1" parent="1">
          <mxGeometry x="1460" y="453.25" width="120" height="60" as="geometry" />
        </mxCell>
        <mxCell id="eiTDNOzj87OtUUi1a_SR-41" value="Linkedlist of Layers" style="rounded=0;whiteSpace=wrap;html=1;" vertex="1" parent="1">
          <mxGeometry x="1443.75" y="745.5" width="120" height="60" as="geometry" />
        </mxCell>
        <mxCell id="eiTDNOzj87OtUUi1a_SR-42" value="Optimizer" style="rounded=0;whiteSpace=wrap;html=1;" vertex="1" parent="1">
          <mxGeometry x="1306.25" y="745.5" width="120" height="60" as="geometry" />
        </mxCell>
        <mxCell id="eiTDNOzj87OtUUi1a_SR-44" value="Metrics" style="rounded=0;whiteSpace=wrap;html=1;" vertex="1" parent="1">
          <mxGeometry x="1170" y="745.5" width="120" height="60" as="geometry" />
        </mxCell>
        <mxCell id="eiTDNOzj87OtUUi1a_SR-46" value="Weight" style="rounded=0;whiteSpace=wrap;html=1;" vertex="1" parent="1">
          <mxGeometry x="330" y="225.25" width="120" height="60" as="geometry" />
        </mxCell>
        <mxCell id="eiTDNOzj87OtUUi1a_SR-67" style="edgeStyle=orthogonalEdgeStyle;rounded=0;orthogonalLoop=1;jettySize=auto;html=1;entryX=0.5;entryY=1;entryDx=0;entryDy=0;" edge="1" parent="1" source="eiTDNOzj87OtUUi1a_SR-47" target="eiTDNOzj87OtUUi1a_SR-66">
          <mxGeometry relative="1" as="geometry" />
        </mxCell>
        <mxCell id="eiTDNOzj87OtUUi1a_SR-47" value="Matrix" style="rounded=0;whiteSpace=wrap;html=1;" vertex="1" parent="1">
          <mxGeometry x="570" y="225.25" width="120" height="60" as="geometry" />
        </mxCell>
        <mxCell id="eiTDNOzj87OtUUi1a_SR-48" value="" style="shape=flexArrow;endArrow=classic;html=1;rounded=0;" edge="1" parent="1">
          <mxGeometry width="50" height="50" relative="1" as="geometry">
            <mxPoint x="460" y="255" as="sourcePoint" />
            <mxPoint x="560" y="254.90999999999997" as="targetPoint" />
          </mxGeometry>
        </mxCell>
        <mxCell id="eiTDNOzj87OtUUi1a_SR-49" value="The weights can be thinked as matrices&amp;nbsp;" style="text;html=1;strokeColor=none;fillColor=none;align=center;verticalAlign=middle;whiteSpace=wrap;rounded=0;" vertex="1" parent="1">
          <mxGeometry x="330" y="300.25" width="335" height="30" as="geometry" />
        </mxCell>
        <mxCell id="eiTDNOzj87OtUUi1a_SR-50" value="Input/Output data" style="rounded=0;whiteSpace=wrap;html=1;" vertex="1" parent="1">
          <mxGeometry x="330" y="335.25" width="120" height="60" as="geometry" />
        </mxCell>
        <mxCell id="eiTDNOzj87OtUUi1a_SR-51" value="" style="shape=flexArrow;endArrow=classic;html=1;rounded=0;" edge="1" parent="1">
          <mxGeometry width="50" height="50" relative="1" as="geometry">
            <mxPoint x="460" y="364.90999999999997" as="sourcePoint" />
            <mxPoint x="560.3400000000001" y="364.90999999999997" as="targetPoint" />
          </mxGeometry>
        </mxCell>
        <mxCell id="eiTDNOzj87OtUUi1a_SR-52" value="Matrice" style="rounded=0;whiteSpace=wrap;html=1;" vertex="1" parent="1">
          <mxGeometry x="570" y="335.25" width="120" height="60" as="geometry" />
        </mxCell>
        <mxCell id="eiTDNOzj87OtUUi1a_SR-53" value="The inputs and outputs from any layer is a matrix" style="text;html=1;strokeColor=none;fillColor=none;align=center;verticalAlign=middle;whiteSpace=wrap;rounded=0;" vertex="1" parent="1">
          <mxGeometry x="330" y="405.25" width="345" height="30" as="geometry" />
        </mxCell>
        <mxCell id="eiTDNOzj87OtUUi1a_SR-54" value="" style="shape=flexArrow;endArrow=classic;html=1;rounded=0;" edge="1" parent="1">
          <mxGeometry width="50" height="50" relative="1" as="geometry">
            <mxPoint x="100" y="475.25" as="sourcePoint" />
            <mxPoint x="160" y="475.25" as="targetPoint" />
          </mxGeometry>
        </mxCell>
        <mxCell id="eiTDNOzj87OtUUi1a_SR-55" value="is a/an" style="text;html=1;strokeColor=none;fillColor=none;align=center;verticalAlign=middle;whiteSpace=wrap;rounded=0;" vertex="1" parent="1">
          <mxGeometry x="30" y="460.25" width="60" height="30" as="geometry" />
        </mxCell>
        <mxCell id="eiTDNOzj87OtUUi1a_SR-56" value="have a/an" style="text;html=1;strokeColor=none;fillColor=none;align=center;verticalAlign=middle;whiteSpace=wrap;rounded=0;" vertex="1" parent="1">
          <mxGeometry x="30" y="535.25" width="60" height="30" as="geometry" />
        </mxCell>
        <mxCell id="eiTDNOzj87OtUUi1a_SR-57" value="" style="endArrow=classic;html=1;rounded=0;" edge="1" parent="1">
          <mxGeometry width="50" height="50" relative="1" as="geometry">
            <mxPoint x="100" y="580.25" as="sourcePoint" />
            <mxPoint x="100" y="520.25" as="targetPoint" />
          </mxGeometry>
        </mxCell>
        <mxCell id="eiTDNOzj87OtUUi1a_SR-66" value="2d - Array" style="rounded=0;whiteSpace=wrap;html=1;" vertex="1" parent="1">
          <mxGeometry x="570" y="135.25" width="120" height="60" as="geometry" />
        </mxCell>
        <mxCell id="eiTDNOzj87OtUUi1a_SR-70" value="Matrices:" style="text;html=1;strokeColor=none;fillColor=none;align=center;verticalAlign=middle;whiteSpace=wrap;rounded=0;" vertex="1" parent="1">
          <mxGeometry x="490" y="105.25" width="60" height="30" as="geometry" />
        </mxCell>
        <mxCell id="eiTDNOzj87OtUUi1a_SR-71" value="Layer:" style="text;html=1;strokeColor=none;fillColor=none;align=center;verticalAlign=middle;whiteSpace=wrap;rounded=0;" vertex="1" parent="1">
          <mxGeometry x="1360" y="89.5" width="60" height="30" as="geometry" />
        </mxCell>
        <mxCell id="eiTDNOzj87OtUUi1a_SR-72" value="Dense" style="rounded=0;whiteSpace=wrap;html=1;" vertex="1" parent="1">
          <mxGeometry x="1210" y="553" width="120" height="60" as="geometry" />
        </mxCell>
        <mxCell id="eiTDNOzj87OtUUi1a_SR-73" value="" style="shape=flexArrow;endArrow=classic;html=1;rounded=0;" edge="1" parent="1">
          <mxGeometry width="50" height="50" relative="1" as="geometry">
            <mxPoint x="1350" y="582.66" as="sourcePoint" />
            <mxPoint x="1440" y="582.66" as="targetPoint" />
          </mxGeometry>
        </mxCell>
        <mxCell id="eiTDNOzj87OtUUi1a_SR-74" value="Trainable Layer" style="rounded=0;whiteSpace=wrap;html=1;" vertex="1" parent="1">
          <mxGeometry x="1460" y="553" width="120" height="60" as="geometry" />
        </mxCell>
        <mxCell id="eiTDNOzj87OtUUi1a_SR-75" value="Activation Function" style="text;html=1;strokeColor=none;fillColor=none;align=center;verticalAlign=middle;whiteSpace=wrap;rounded=0;" vertex="1" parent="1">
          <mxGeometry x="1740" y="97.25" width="150" height="30" as="geometry" />
        </mxCell>
        <mxCell id="eiTDNOzj87OtUUi1a_SR-79" value="Dense layers is the most common layer in neural network" style="text;html=1;strokeColor=none;fillColor=none;align=center;verticalAlign=middle;whiteSpace=wrap;rounded=0;" vertex="1" parent="1">
          <mxGeometry x="1210" y="633" width="335" height="30" as="geometry" />
        </mxCell>
        <mxCell id="eiTDNOzj87OtUUi1a_SR-80" value="Models:" style="text;html=1;strokeColor=none;fillColor=none;align=center;verticalAlign=middle;whiteSpace=wrap;rounded=0;" vertex="1" parent="1">
          <mxGeometry x="1506.25" y="695.5" width="60" height="30" as="geometry" />
        </mxCell>
        <mxCell id="eiTDNOzj87OtUUi1a_SR-81" value="Linear" style="rounded=0;whiteSpace=wrap;html=1;" vertex="1" parent="1">
          <mxGeometry x="1640" y="240.75" width="120" height="60" as="geometry" />
        </mxCell>
        <mxCell id="eiTDNOzj87OtUUi1a_SR-82" value="" style="shape=flexArrow;endArrow=classic;html=1;rounded=0;" edge="1" parent="1">
          <mxGeometry width="50" height="50" relative="1" as="geometry">
            <mxPoint x="1780" y="270.40999999999997" as="sourcePoint" />
            <mxPoint x="1870" y="270.40999999999997" as="targetPoint" />
          </mxGeometry>
        </mxCell>
        <mxCell id="eiTDNOzj87OtUUi1a_SR-83" value="Activation Function" style="rounded=0;whiteSpace=wrap;html=1;" vertex="1" parent="1">
          <mxGeometry x="1890" y="240.75" width="120" height="60" as="geometry" />
        </mxCell>
        <mxCell id="eiTDNOzj87OtUUi1a_SR-84" value="Sigmoid" style="rounded=0;whiteSpace=wrap;html=1;" vertex="1" parent="1">
          <mxGeometry x="1640" y="326" width="120" height="60" as="geometry" />
        </mxCell>
        <mxCell id="eiTDNOzj87OtUUi1a_SR-85" value="" style="shape=flexArrow;endArrow=classic;html=1;rounded=0;" edge="1" parent="1">
          <mxGeometry width="50" height="50" relative="1" as="geometry">
            <mxPoint x="1780" y="355.65999999999997" as="sourcePoint" />
            <mxPoint x="1870" y="355.65999999999997" as="targetPoint" />
          </mxGeometry>
        </mxCell>
        <mxCell id="eiTDNOzj87OtUUi1a_SR-86" value="Activation Function" style="rounded=0;whiteSpace=wrap;html=1;" vertex="1" parent="1">
          <mxGeometry x="1890" y="326" width="120" height="60" as="geometry" />
        </mxCell>
        <mxCell id="eiTDNOzj87OtUUi1a_SR-87" value="Relu" style="rounded=0;whiteSpace=wrap;html=1;" vertex="1" parent="1">
          <mxGeometry x="1640" y="411" width="120" height="60" as="geometry" />
        </mxCell>
        <mxCell id="eiTDNOzj87OtUUi1a_SR-88" value="" style="shape=flexArrow;endArrow=classic;html=1;rounded=0;" edge="1" parent="1">
          <mxGeometry width="50" height="50" relative="1" as="geometry">
            <mxPoint x="1780" y="440.65999999999997" as="sourcePoint" />
            <mxPoint x="1870" y="440.65999999999997" as="targetPoint" />
          </mxGeometry>
        </mxCell>
        <mxCell id="eiTDNOzj87OtUUi1a_SR-89" value="Activation Function" style="rounded=0;whiteSpace=wrap;html=1;" vertex="1" parent="1">
          <mxGeometry x="1890" y="411" width="120" height="60" as="geometry" />
        </mxCell>
        <mxCell id="eiTDNOzj87OtUUi1a_SR-90" value="Hyperbolic Tangent" style="rounded=0;whiteSpace=wrap;html=1;" vertex="1" parent="1">
          <mxGeometry x="1640" y="500.75" width="120" height="60" as="geometry" />
        </mxCell>
        <mxCell id="eiTDNOzj87OtUUi1a_SR-91" value="" style="shape=flexArrow;endArrow=classic;html=1;rounded=0;" edge="1" parent="1">
          <mxGeometry width="50" height="50" relative="1" as="geometry">
            <mxPoint x="1780" y="530.41" as="sourcePoint" />
            <mxPoint x="1870" y="530.41" as="targetPoint" />
          </mxGeometry>
        </mxCell>
        <mxCell id="eiTDNOzj87OtUUi1a_SR-92" value="Activation Function" style="rounded=0;whiteSpace=wrap;html=1;" vertex="1" parent="1">
          <mxGeometry x="1890" y="500.75" width="120" height="60" as="geometry" />
        </mxCell>
        <mxCell id="eiTDNOzj87OtUUi1a_SR-94" value="Since layers are functions we can use it to have the activation functions" style="text;html=1;strokeColor=none;fillColor=none;align=center;verticalAlign=middle;whiteSpace=wrap;rounded=0;" vertex="1" parent="1">
          <mxGeometry x="1660" y="205.5" width="335" height="30" as="geometry" />
        </mxCell>
        <mxCell id="eiTDNOzj87OtUUi1a_SR-95" value="Optimizers:" style="text;html=1;strokeColor=none;fillColor=none;align=center;verticalAlign=middle;whiteSpace=wrap;rounded=0;" vertex="1" parent="1">
          <mxGeometry x="480" y="475.5" width="80" height="30" as="geometry" />
        </mxCell>
        <mxCell id="eiTDNOzj87OtUUi1a_SR-99" style="edgeStyle=orthogonalEdgeStyle;rounded=0;orthogonalLoop=1;jettySize=auto;html=1;entryX=0.5;entryY=1;entryDx=0;entryDy=0;exitX=0.5;exitY=0;exitDx=0;exitDy=0;" edge="1" parent="1" source="eiTDNOzj87OtUUi1a_SR-102" target="eiTDNOzj87OtUUi1a_SR-100">
          <mxGeometry relative="1" as="geometry">
            <mxPoint x="580" y="553" as="targetPoint" />
            <Array as="points">
              <mxPoint x="400" y="565.5" />
            </Array>
          </mxGeometry>
        </mxCell>
        <mxCell id="eiTDNOzj87OtUUi1a_SR-96" value="Back propagation algorithm" style="rounded=0;whiteSpace=wrap;html=1;" vertex="1" parent="1">
          <mxGeometry x="580" y="603" width="120" height="60" as="geometry" />
        </mxCell>
        <mxCell id="eiTDNOzj87OtUUi1a_SR-97" value="Incharge to fit more the models with the data, in batches" style="text;html=1;strokeColor=none;fillColor=none;align=center;verticalAlign=middle;whiteSpace=wrap;rounded=0;" vertex="1" parent="1">
          <mxGeometry x="352.5" y="685.5" width="300" height="30" as="geometry" />
        </mxCell>
        <mxCell id="eiTDNOzj87OtUUi1a_SR-100" value="Neural Network model" style="rounded=0;whiteSpace=wrap;html=1;" vertex="1" parent="1">
          <mxGeometry x="340" y="505.5" width="120" height="60" as="geometry" />
        </mxCell>
        <mxCell id="eiTDNOzj87OtUUi1a_SR-102" value="Optimizer" style="rounded=0;whiteSpace=wrap;html=1;" vertex="1" parent="1">
          <mxGeometry x="340" y="603" width="120" height="60" as="geometry" />
        </mxCell>
        <mxCell id="eiTDNOzj87OtUUi1a_SR-103" value="" style="shape=flexArrow;endArrow=classic;html=1;rounded=0;" edge="1" parent="1">
          <mxGeometry width="50" height="50" relative="1" as="geometry">
            <mxPoint x="475" y="632.66" as="sourcePoint" />
            <mxPoint x="565" y="632.66" as="targetPoint" />
          </mxGeometry>
        </mxCell>
        <mxCell id="eiTDNOzj87OtUUi1a_SR-104" value="Gradient Descent (GD)" style="rounded=0;whiteSpace=wrap;html=1;" vertex="1" parent="1">
          <mxGeometry x="340" y="745.5" width="120" height="60" as="geometry" />
        </mxCell>
        <mxCell id="eiTDNOzj87OtUUi1a_SR-105" value="Optimizer" style="rounded=0;whiteSpace=wrap;html=1;" vertex="1" parent="1">
          <mxGeometry x="580" y="745.5" width="120" height="60" as="geometry" />
        </mxCell>
        <mxCell id="eiTDNOzj87OtUUi1a_SR-106" value="" style="shape=flexArrow;endArrow=classic;html=1;rounded=0;" edge="1" parent="1">
          <mxGeometry width="50" height="50" relative="1" as="geometry">
            <mxPoint x="475" y="775.16" as="sourcePoint" />
            <mxPoint x="565" y="775.16" as="targetPoint" />
          </mxGeometry>
        </mxCell>
        <mxCell id="eiTDNOzj87OtUUi1a_SR-107" value="Stochastic&amp;nbsp;Gradient Descent (SGD)" style="rounded=0;whiteSpace=wrap;html=1;" vertex="1" parent="1">
          <mxGeometry x="340" y="835.5" width="120" height="60" as="geometry" />
        </mxCell>
        <mxCell id="eiTDNOzj87OtUUi1a_SR-108" value="Optimizer" style="rounded=0;whiteSpace=wrap;html=1;" vertex="1" parent="1">
          <mxGeometry x="580" y="835.5" width="120" height="60" as="geometry" />
        </mxCell>
        <mxCell id="eiTDNOzj87OtUUi1a_SR-109" value="" style="shape=flexArrow;endArrow=classic;html=1;rounded=0;" edge="1" parent="1">
          <mxGeometry width="50" height="50" relative="1" as="geometry">
            <mxPoint x="475" y="865.1599999999999" as="sourcePoint" />
            <mxPoint x="565" y="865.1599999999999" as="targetPoint" />
          </mxGeometry>
        </mxCell>
        <mxCell id="eiTDNOzj87OtUUi1a_SR-113" value="Adam" style="rounded=0;whiteSpace=wrap;html=1;" vertex="1" parent="1">
          <mxGeometry x="340" y="915.5" width="120" height="60" as="geometry" />
        </mxCell>
        <mxCell id="eiTDNOzj87OtUUi1a_SR-114" value="Optimizer" style="rounded=0;whiteSpace=wrap;html=1;" vertex="1" parent="1">
          <mxGeometry x="580" y="915.5" width="120" height="60" as="geometry" />
        </mxCell>
        <mxCell id="eiTDNOzj87OtUUi1a_SR-115" value="" style="shape=flexArrow;endArrow=classic;html=1;rounded=0;" edge="1" parent="1">
          <mxGeometry width="50" height="50" relative="1" as="geometry">
            <mxPoint x="475" y="945.1599999999999" as="sourcePoint" />
            <mxPoint x="565" y="945.1599999999999" as="targetPoint" />
          </mxGeometry>
        </mxCell>
        <mxCell id="eiTDNOzj87OtUUi1a_SR-116" value="Initializer" style="rounded=0;whiteSpace=wrap;html=1;" vertex="1" parent="1">
          <mxGeometry x="1350" y="258.25" width="120" height="60" as="geometry" />
        </mxCell>
        <mxCell id="eiTDNOzj87OtUUi1a_SR-119" value="Initializer:" style="text;html=1;strokeColor=none;fillColor=none;align=center;verticalAlign=middle;whiteSpace=wrap;rounded=0;" vertex="1" parent="1">
          <mxGeometry x="890" y="97.25" width="60" height="30" as="geometry" />
        </mxCell>
        <mxCell id="eiTDNOzj87OtUUi1a_SR-122" style="edgeStyle=orthogonalEdgeStyle;rounded=0;orthogonalLoop=1;jettySize=auto;html=1;entryX=0.5;entryY=1;entryDx=0;entryDy=0;" edge="1" parent="1" source="eiTDNOzj87OtUUi1a_SR-120" target="eiTDNOzj87OtUUi1a_SR-121">
          <mxGeometry relative="1" as="geometry" />
        </mxCell>
        <mxCell id="eiTDNOzj87OtUUi1a_SR-120" value="Initializer" style="rounded=0;whiteSpace=wrap;html=1;" vertex="1" parent="1">
          <mxGeometry x="743.75" y="225.5" width="120" height="60" as="geometry" />
        </mxCell>
        <mxCell id="eiTDNOzj87OtUUi1a_SR-121" value="Weight" style="rounded=0;whiteSpace=wrap;html=1;" vertex="1" parent="1">
          <mxGeometry x="743.75" y="130.75" width="120" height="60" as="geometry" />
        </mxCell>
        <mxCell id="eiTDNOzj87OtUUi1a_SR-123" value="" style="shape=flexArrow;endArrow=classic;html=1;rounded=0;" edge="1" parent="1">
          <mxGeometry width="50" height="50" relative="1" as="geometry">
            <mxPoint x="876.25" y="255.09" as="sourcePoint" />
            <mxPoint x="976.25" y="254.99999999999997" as="targetPoint" />
          </mxGeometry>
        </mxCell>
        <mxCell id="eiTDNOzj87OtUUi1a_SR-124" value="Randomize algorithm to set the values of a kernel" style="rounded=0;whiteSpace=wrap;html=1;" vertex="1" parent="1">
          <mxGeometry x="996.25" y="225.25" width="120" height="60" as="geometry" />
        </mxCell>
        <mxCell id="eiTDNOzj87OtUUi1a_SR-126" value="Simple Factory function to initilize matrices" style="text;html=1;strokeColor=none;fillColor=none;align=center;verticalAlign=middle;whiteSpace=wrap;rounded=0;" vertex="1" parent="1">
          <mxGeometry x="760" y="288.5" width="320" height="30" as="geometry" />
        </mxCell>
        <mxCell id="eiTDNOzj87OtUUi1a_SR-128" value="RandomNormal deviation" style="rounded=0;whiteSpace=wrap;html=1;" vertex="1" parent="1">
          <mxGeometry x="743.75" y="415.5" width="120" height="60" as="geometry" />
        </mxCell>
        <mxCell id="eiTDNOzj87OtUUi1a_SR-129" value="" style="shape=flexArrow;endArrow=classic;html=1;rounded=0;" edge="1" parent="1">
          <mxGeometry width="50" height="50" relative="1" as="geometry">
            <mxPoint x="876.25" y="445.09000000000003" as="sourcePoint" />
            <mxPoint x="976.25" y="445" as="targetPoint" />
          </mxGeometry>
        </mxCell>
        <mxCell id="eiTDNOzj87OtUUi1a_SR-130" value="Initializer" style="rounded=0;whiteSpace=wrap;html=1;" vertex="1" parent="1">
          <mxGeometry x="996.25" y="415.25" width="120" height="60" as="geometry" />
        </mxCell>
        <mxCell id="eiTDNOzj87OtUUi1a_SR-131" value="RandomRange" style="rounded=0;whiteSpace=wrap;html=1;" vertex="1" parent="1">
          <mxGeometry x="744.75" y="330.5" width="120" height="60" as="geometry" />
        </mxCell>
        <mxCell id="eiTDNOzj87OtUUi1a_SR-132" value="" style="shape=flexArrow;endArrow=classic;html=1;rounded=0;" edge="1" parent="1">
          <mxGeometry width="50" height="50" relative="1" as="geometry">
            <mxPoint x="876.25" y="360.09000000000003" as="sourcePoint" />
            <mxPoint x="976.25" y="360" as="targetPoint" />
          </mxGeometry>
        </mxCell>
        <mxCell id="eiTDNOzj87OtUUi1a_SR-133" value="Initializer" style="rounded=0;whiteSpace=wrap;html=1;" vertex="1" parent="1">
          <mxGeometry x="996.25" y="330.25" width="120" height="60" as="geometry" />
        </mxCell>
        <mxCell id="eiTDNOzj87OtUUi1a_SR-159" style="edgeStyle=orthogonalEdgeStyle;rounded=0;orthogonalLoop=1;jettySize=auto;html=1;entryX=0.5;entryY=1;entryDx=0;entryDy=0;" edge="1" parent="1" source="eiTDNOzj87OtUUi1a_SR-136" target="eiTDNOzj87OtUUi1a_SR-158">
          <mxGeometry relative="1" as="geometry" />
        </mxCell>
        <mxCell id="eiTDNOzj87OtUUi1a_SR-136" value="Loss Function" style="rounded=0;whiteSpace=wrap;html=1;" vertex="1" parent="1">
          <mxGeometry x="2060" y="225.25" width="120" height="60" as="geometry" />
        </mxCell>
        <mxCell id="eiTDNOzj87OtUUi1a_SR-137" value="" style="shape=flexArrow;endArrow=classic;html=1;rounded=0;" edge="1" parent="1">
          <mxGeometry width="50" height="50" relative="1" as="geometry">
            <mxPoint x="2200" y="254.90999999999997" as="sourcePoint" />
            <mxPoint x="2290" y="254.90999999999997" as="targetPoint" />
          </mxGeometry>
        </mxCell>
        <mxCell id="eiTDNOzj87OtUUi1a_SR-138" value="Is a cost algorithm that uses ilsts of data" style="rounded=0;whiteSpace=wrap;html=1;" vertex="1" parent="1">
          <mxGeometry x="2310" y="225.25" width="120" height="60" as="geometry" />
        </mxCell>
        <mxCell id="eiTDNOzj87OtUUi1a_SR-139" value="Loss function" style="text;html=1;strokeColor=none;fillColor=none;align=center;verticalAlign=middle;whiteSpace=wrap;rounded=0;" vertex="1" parent="1">
          <mxGeometry x="2160" y="86.5" width="150" height="30" as="geometry" />
        </mxCell>
        <mxCell id="eiTDNOzj87OtUUi1a_SR-140" value="MeanSquareError" style="rounded=0;whiteSpace=wrap;html=1;" vertex="1" parent="1">
          <mxGeometry x="2060" y="335.25" width="120" height="60" as="geometry" />
        </mxCell>
        <mxCell id="eiTDNOzj87OtUUi1a_SR-141" value="" style="shape=flexArrow;endArrow=classic;html=1;rounded=0;" edge="1" parent="1">
          <mxGeometry width="50" height="50" relative="1" as="geometry">
            <mxPoint x="2200" y="364.90999999999997" as="sourcePoint" />
            <mxPoint x="2290" y="364.90999999999997" as="targetPoint" />
          </mxGeometry>
        </mxCell>
        <mxCell id="eiTDNOzj87OtUUi1a_SR-142" value="Loss Function" style="rounded=0;whiteSpace=wrap;html=1;" vertex="1" parent="1">
          <mxGeometry x="2310" y="335.25" width="120" height="60" as="geometry" />
        </mxCell>
        <mxCell id="eiTDNOzj87OtUUi1a_SR-152" value="They are not layers, becase the work independently from the model" style="text;html=1;strokeColor=none;fillColor=none;align=center;verticalAlign=middle;whiteSpace=wrap;rounded=0;" vertex="1" parent="1">
          <mxGeometry x="2080" y="300" width="335" height="30" as="geometry" />
        </mxCell>
        <mxCell id="eiTDNOzj87OtUUi1a_SR-158" value="a list of Input/Output" style="rounded=0;whiteSpace=wrap;html=1;" vertex="1" parent="1">
          <mxGeometry x="2060" y="131.75" width="120" height="60" as="geometry" />
        </mxCell>
        <mxCell id="eiTDNOzj87OtUUi1a_SR-160" value="BinaryCross-Entropy / LogLoss" style="rounded=0;whiteSpace=wrap;html=1;" vertex="1" parent="1">
          <mxGeometry x="2060" y="411" width="120" height="60" as="geometry" />
        </mxCell>
        <mxCell id="eiTDNOzj87OtUUi1a_SR-161" value="" style="shape=flexArrow;endArrow=classic;html=1;rounded=0;" edge="1" parent="1">
          <mxGeometry width="50" height="50" relative="1" as="geometry">
            <mxPoint x="2200" y="440.65999999999997" as="sourcePoint" />
            <mxPoint x="2290" y="440.65999999999997" as="targetPoint" />
          </mxGeometry>
        </mxCell>
        <mxCell id="eiTDNOzj87OtUUi1a_SR-162" value="Loss Function" style="rounded=0;whiteSpace=wrap;html=1;" vertex="1" parent="1">
          <mxGeometry x="2310" y="411" width="120" height="60" as="geometry" />
        </mxCell>
        <mxCell id="eiTDNOzj87OtUUi1a_SR-163" value="Loss Function" style="rounded=0;whiteSpace=wrap;html=1;" vertex="1" parent="1">
          <mxGeometry x="1590" y="745.5" width="120" height="60" as="geometry" />
        </mxCell>
        <mxCell id="eiTDNOzj87OtUUi1a_SR-165" value="HingeLoss" style="rounded=0;whiteSpace=wrap;html=1;" vertex="1" parent="1">
          <mxGeometry x="2060" y="500.75" width="120" height="60" as="geometry" />
        </mxCell>
        <mxCell id="eiTDNOzj87OtUUi1a_SR-166" value="" style="shape=flexArrow;endArrow=classic;html=1;rounded=0;" edge="1" parent="1">
          <mxGeometry width="50" height="50" relative="1" as="geometry">
            <mxPoint x="2200" y="530.41" as="sourcePoint" />
            <mxPoint x="2290" y="530.41" as="targetPoint" />
          </mxGeometry>
        </mxCell>
        <mxCell id="eiTDNOzj87OtUUi1a_SR-167" value="Loss Function" style="rounded=0;whiteSpace=wrap;html=1;" vertex="1" parent="1">
          <mxGeometry x="2310" y="500.75" width="120" height="60" as="geometry" />
        </mxCell>
        <mxCell id="eiTDNOzj87OtUUi1a_SR-170" value="Metrics:" style="text;html=1;strokeColor=none;fillColor=none;align=center;verticalAlign=middle;whiteSpace=wrap;rounded=0;" vertex="1" parent="1">
          <mxGeometry x="895.25" y="573" width="80" height="30" as="geometry" />
        </mxCell>
        <mxCell id="eiTDNOzj87OtUUi1a_SR-171" value="Metrics" style="rounded=0;whiteSpace=wrap;html=1;" vertex="1" parent="1">
          <mxGeometry x="760" y="713" width="120" height="60" as="geometry" />
        </mxCell>
        <mxCell id="eiTDNOzj87OtUUi1a_SR-172" style="edgeStyle=orthogonalEdgeStyle;rounded=0;orthogonalLoop=1;jettySize=auto;html=1;entryX=0.5;entryY=1;entryDx=0;entryDy=0;exitX=0.5;exitY=0;exitDx=0;exitDy=0;" edge="1" parent="1" target="eiTDNOzj87OtUUi1a_SR-173" source="eiTDNOzj87OtUUi1a_SR-171">
          <mxGeometry relative="1" as="geometry">
            <mxPoint x="1004.75" y="660.5" as="targetPoint" />
            <mxPoint x="824.75" y="710.5" as="sourcePoint" />
            <Array as="points">
              <mxPoint x="820" y="673" />
            </Array>
          </mxGeometry>
        </mxCell>
        <mxCell id="eiTDNOzj87OtUUi1a_SR-173" value="Neural Network model" style="rounded=0;whiteSpace=wrap;html=1;" vertex="1" parent="1">
          <mxGeometry x="760" y="613" width="120" height="60" as="geometry" />
        </mxCell>
        <mxCell id="eiTDNOzj87OtUUi1a_SR-174" value="" style="shape=flexArrow;endArrow=classic;html=1;rounded=0;" edge="1" parent="1">
          <mxGeometry width="50" height="50" relative="1" as="geometry">
            <mxPoint x="890.25" y="742.5" as="sourcePoint" />
            <mxPoint x="980.25" y="742.5" as="targetPoint" />
          </mxGeometry>
        </mxCell>
        <mxCell id="eiTDNOzj87OtUUi1a_SR-175" value="To measure how accurate the model is" style="rounded=0;whiteSpace=wrap;html=1;" vertex="1" parent="1">
          <mxGeometry x="995.25" y="713" width="120" height="60" as="geometry" />
        </mxCell>
        <mxCell id="eiTDNOzj87OtUUi1a_SR-176" value="Accuracy metrics" style="rounded=0;whiteSpace=wrap;html=1;" vertex="1" parent="1">
          <mxGeometry x="760" y="800" width="120" height="60" as="geometry" />
        </mxCell>
        <mxCell id="eiTDNOzj87OtUUi1a_SR-177" value="" style="shape=flexArrow;endArrow=classic;html=1;rounded=0;" edge="1" parent="1">
          <mxGeometry width="50" height="50" relative="1" as="geometry">
            <mxPoint x="890.25" y="829.5699999999999" as="sourcePoint" />
            <mxPoint x="980.25" y="829.5699999999999" as="targetPoint" />
          </mxGeometry>
        </mxCell>
        <mxCell id="eiTDNOzj87OtUUi1a_SR-178" value="Metrics" style="rounded=0;whiteSpace=wrap;html=1;" vertex="1" parent="1">
          <mxGeometry x="995.25" y="800" width="120" height="60" as="geometry" />
        </mxCell>
      </root>
    </mxGraphModel>
  </diagram>
</mxfile>
